STARTFONT 2.1
FONT -WRI-Mathematica4-Bold-R-Normal--20-200-75-75-p-150-Adobe-FontSpecific
SIZE 20 75 75
FONTBOUNDINGBOX 54 25 -2 -6
STARTPROPERTIES 16
FOUNDRY "WRI"
FAMILY_NAME "Mathematica4"
WEIGHT_NAME "Bold"
SLANT "R"
SETWIDTH_NAME "Normal"
PIXEL_SIZE 20
POINT_SIZE 200
RESOLUTION_X 75
RESOLUTION_Y 75
SPACING "p"
AVERAGE_WIDTH 150
CHARSET_REGISTRY "Adobe"
CHARSET_ENCODING "FontSpecific"
FONT_DESCENT 6
FONT_ASCENT 19
DEFAULT_CHAR 32
ENDPROPERTIES
CHARS 224
STARTCHAR Space
ENCODING 32
SWIDTH 189 0
DWIDTH 4 0
BBX 0 0 0 0
BITMAP
ENDCHAR
STARTCHAR RArrowBar
ENCODING 33
SWIDTH 962 0
DWIDTH 19 0
BBX 17 8 1 1
BITMAP
003180
003980
001d80
ffff80
ffff80
001d80
003980
003180
ENDCHAR
STARTCHAR LTackArrow
ENCODING 34
SWIDTH 922 0
DWIDTH 18 0
BBX 16 8 1 1
BITMAP
1803
3803
7003
ffff
ffff
7003
3803
1803
ENDCHAR
STARTCHAR RTackArrow
ENCODING 35
SWIDTH 922 0
DWIDTH 18 0
BBX 16 8 1 1
BITMAP
c018
c01c
c00e
ffff
ffff
c00e
c01c
c018
ENDCHAR
STARTCHAR UpArrowBar
ENCODING 36
SWIDTH 590 0
DWIDTH 12 0
BBX 8 17 2 0
BITMAP
ff
ff
18
3c
7e
ff
db
18
18
18
18
18
18
18
18
18
18
ENDCHAR
STARTCHAR DownArrowBar
ENCODING 37
SWIDTH 590 0
DWIDTH 12 0
BBX 8 17 2 0
BITMAP
18
18
18
18
18
18
18
18
18
18
db
ff
7e
3c
18
ff
ff
ENDCHAR
STARTCHAR UpTackArrow
ENCODING 38
SWIDTH 591 0
DWIDTH 12 0
BBX 8 16 2 0
BITMAP
18
3c
7e
ff
db
18
18
18
18
18
18
18
18
18
ff
ff
ENDCHAR
STARTCHAR DownTackArrow
ENCODING 39
SWIDTH 591 0
DWIDTH 12 0
BBX 8 16 2 0
BITMAP
ff
ff
18
18
18
18
18
18
18
18
18
db
ff
7e
3c
18
ENDCHAR
STARTCHAR LVectorBar
ENCODING 40
SWIDTH 982 0
DWIDTH 20 0
BBX 17 8 1 1
BITMAP
c30000
c70000
ce0000
dfff80
ffff80
c00000
c00000
c00000
ENDCHAR
STARTCHAR RVectorBar
ENCODING 41
SWIDTH 982 0
DWIDTH 20 0
BBX 17 8 1 1
BITMAP
006180
007180
003980
fffd80
ffff80
000180
000180
000180
ENDCHAR
STARTCHAR DownLVectorBar
ENCODING 42
SWIDTH 982 0
DWIDTH 20 0
BBX 17 9 1 1
BITMAP
c00000
c00000
c00000
c00000
ffff80
dfff80
ce0000
c70000
c30000
ENDCHAR
STARTCHAR DownRVectorBar
ENCODING 43
SWIDTH 982 0
DWIDTH 20 0
BBX 17 9 1 1
BITMAP
000180
000180
000180
000180
ffff80
fffd80
003980
007180
006180
ENDCHAR
STARTCHAR LTackVector
ENCODING 44
SWIDTH 941 0
DWIDTH 19 0
BBX 17 10 1 0
BITMAP
000180
0c0180
1c0180
380180
7fff80
ffff80
000180
000180
000180
000180
ENDCHAR
STARTCHAR RTackVector
ENCODING 45
SWIDTH 941 0
DWIDTH 19 0
BBX 17 10 1 0
BITMAP
c00000
c01800
c01c00
c00e00
ffff00
ffff80
c00000
c00000
c00000
c00000
ENDCHAR
STARTCHAR DownLTackVector
ENCODING 46
SWIDTH 941 0
DWIDTH 19 0
BBX 17 10 1 0
BITMAP
000180
000180
000180
000180
ffff80
7fff80
380180
1c0180
0c0180
000180
ENDCHAR
STARTCHAR DownRTackVector
ENCODING 47
SWIDTH 941 0
DWIDTH 19 0
BBX 17 10 1 0
BITMAP
c00000
c00000
c00000
c00000
ffff80
ffff00
c00e00
c01c00
c01800
c00000
ENDCHAR
STARTCHAR LVector
ENCODING 48
SWIDTH 887 0
DWIDTH 18 0
BBX 16 5 1 4
BITMAP
0c00
1c00
3800
7fff
ffff
ENDCHAR
STARTCHAR RVector
ENCODING 49
SWIDTH 887 0
DWIDTH 18 0
BBX 15 5 1 4
BITMAP
0030
0038
001c
fffc
fffe
ENDCHAR
STARTCHAR LRVector
ENCODING 50
SWIDTH 1068 0
DWIDTH 21 0
BBX 19 5 1 4
BITMAP
0c0600
1c0700
380380
7fffc0
ffffe0
ENDCHAR
STARTCHAR DownLVector
ENCODING 51
SWIDTH 887 0
DWIDTH 18 0
BBX 16 5 1 1
BITMAP
ffff
7fff
3800
1c00
0c00
ENDCHAR
STARTCHAR DownRVector
ENCODING 52
SWIDTH 887 0
DWIDTH 18 0
BBX 16 5 1 1
BITMAP
ffff
fffe
001c
0038
0030
ENDCHAR
STARTCHAR DownLRVector
ENCODING 53
SWIDTH 1068 0
DWIDTH 21 0
BBX 19 5 1 1
BITMAP
ffffe0
7fffc0
380380
1c0700
0c0600
ENDCHAR
STARTCHAR LUpDownVector
ENCODING 54
SWIDTH 422 0
DWIDTH 8 0
BBX 5 19 1 0
BITMAP
08
18
38
78
f8
d8
18
18
18
18
18
18
18
d8
f8
78
38
18
08
ENDCHAR
STARTCHAR RUpDownVector
ENCODING 55
SWIDTH 422 0
DWIDTH 8 0
BBX 5 19 2 0
BITMAP
80
c0
e0
f0
f8
d8
c0
c0
c0
c0
c0
c0
c0
d8
f8
f0
e0
c0
80
ENDCHAR
STARTCHAR LUpVectorBar
ENCODING 56
SWIDTH 590 0
DWIDTH 12 0
BBX 10 17 1 0
BITMAP
ffc0
ffc0
0400
0c00
1c00
3c00
7c00
6c00
0c00
0c00
0c00
0c00
0c00
0c00
0c00
0c00
0c00
ENDCHAR
STARTCHAR LDownVectorBar
ENCODING 57
SWIDTH 590 0
DWIDTH 12 0
BBX 10 17 1 0
BITMAP
0c00
0c00
0c00
0c00
0c00
0c00
0c00
0c00
0c00
6c00
7c00
3c00
1c00
0c00
0400
ffc0
ffc0
ENDCHAR
STARTCHAR RUpVectorBar
ENCODING 58
SWIDTH 590 0
DWIDTH 12 0
BBX 10 17 1 0
BITMAP
ffc0
ffc0
0800
0c00
0e00
0f00
0f80
0d80
0c00
0c00
0c00
0c00
0c00
0c00
0c00
0c00
0c00
ENDCHAR
STARTCHAR RDownVectorBar
ENCODING 59
SWIDTH 590 0
DWIDTH 12 0
BBX 10 17 1 0
BITMAP
0c00
0c00
0c00
0c00
0c00
0c00
0c00
0c00
0c00
0d80
0f80
0f00
0e00
0c00
0800
ffc0
ffc0
ENDCHAR
STARTCHAR LUpTackVector
ENCODING 60
SWIDTH 590 0
DWIDTH 12 0
BBX 10 16 1 0
BITMAP
0400
0c00
1c00
3c00
7c00
6c00
0c00
0c00
0c00
0c00
0c00
0c00
0c00
0c00
ffc0
ffc0
ENDCHAR
STARTCHAR LDownTackVector
ENCODING 61
SWIDTH 590 0
DWIDTH 12 0
BBX 10 16 1 0
BITMAP
ffc0
ffc0
0c00
0c00
0c00
0c00
0c00
0c00
0c00
0c00
6c00
7c00
3c00
1c00
0c00
0400
ENDCHAR
STARTCHAR RUpTackVector
ENCODING 62
SWIDTH 590 0
DWIDTH 12 0
BBX 10 16 1 0
BITMAP
0800
0c00
0e00
0f00
0f80
0d80
0c00
0c00
0c00
0c00
0c00
0c00
0c00
0c00
ffc0
ffc0
ENDCHAR
STARTCHAR RDownTackVector
ENCODING 63
SWIDTH 590 0
DWIDTH 12 0
BBX 10 16 1 0
BITMAP
ffc0
ffc0
0c00
0c00
0c00
0c00
0c00
0c00
0c00
0c00
0d80
0f80
0f00
0e00
0c00
0800
ENDCHAR
STARTCHAR LUpVector
ENCODING 64
SWIDTH 421 0
DWIDTH 8 0
BBX 5 15 1 0
BITMAP
08
18
38
78
f8
d8
18
18
18
18
18
18
18
18
18
ENDCHAR
STARTCHAR ExtensUp1
ENCODING 65
SWIDTH 590 0
DWIDTH 12 0
BBX 2 7 5 0
BITMAP
c0
c0
c0
c0
c0
c0
c0
ENDCHAR
STARTCHAR LDownVector
ENCODING 66
SWIDTH 421 0
DWIDTH 8 0
BBX 5 15 1 0
BITMAP
18
18
18
18
18
18
18
18
18
d8
f8
78
38
18
08
ENDCHAR
STARTCHAR RUpVector
ENCODING 67
SWIDTH 422 0
DWIDTH 8 0
BBX 5 15 2 0
BITMAP
80
c0
e0
f0
f8
d8
c0
c0
c0
c0
c0
c0
c0
c0
c0
ENDCHAR
STARTCHAR ExtensUp2
ENCODING 68
SWIDTH 422 0
DWIDTH 8 0
BBX 2 7 2 0
BITMAP
c0
c0
c0
c0
c0
c0
c0
ENDCHAR
STARTCHAR RDownVector
ENCODING 69
SWIDTH 422 0
DWIDTH 8 0
BBX 5 15 2 0
BITMAP
c0
c0
c0
c0
c0
c0
c0
c0
c0
d8
f8
f0
e0
c0
80
ENDCHAR
STARTCHAR Equilibrium
ENCODING 70
SWIDTH 903 0
DWIDTH 18 0
BBX 16 13 1 -2
BITMAP
0030
0038
001c
7ffe
7fff
0000
0000
0000
fffe
7ffe
3800
1c00
0c00
ENDCHAR
STARTCHAR RvrsEquilibrium
ENCODING 71
SWIDTH 903 0
DWIDTH 18 0
BBX 16 13 1 -2
BITMAP
0c00
1c00
3800
7ffe
fffe
0000
0000
0000
7fff
7ffe
001c
0038
0030
ENDCHAR
STARTCHAR EquilbrmHeadL
ENCODING 72
SWIDTH 388 0
DWIDTH 8 0
BBX 7 10 1 -2
BITMAP
fe
fe
00
00
00
fe
7e
38
1c
0c
ENDCHAR
STARTCHAR EquilbrmheadR
ENCODING 73
SWIDTH 388 0
DWIDTH 8 0
BBX 7 10 0 1
BITMAP
60
70
38
fc
fe
00
00
00
fe
fe
ENDCHAR
STARTCHAR RvrsEquilbrmHeadL
ENCODING 74
SWIDTH 388 0
DWIDTH 8 0
BBX 7 10 1 1
BITMAP
0c
1c
38
7e
fe
00
00
00
fe
fe
ENDCHAR
STARTCHAR RvrsEquilbrmHeadR
ENCODING 75
SWIDTH 388 0
DWIDTH 8 0
BBX 7 10 0 -2
BITMAP
fe
fe
00
00
00
fe
fc
38
70
60
ENDCHAR
STARTCHAR UpEquilibrium
ENCODING 76
SWIDTH 833 0
DWIDTH 17 0
BBX 13 16 2 -1
BITMAP
0800
18c0
38c0
78c0
f8c0
d8c0
18c0
18c0
18c0
18c0
18d8
18f8
18f0
18e0
18c0
0080
ENDCHAR
STARTCHAR RvrsUpEquilibrium
ENCODING 77
SWIDTH 834 0
DWIDTH 17 0
BBX 13 16 2 -1
BITMAP
0080
18c0
18e0
18f0
18f8
18d8
18c0
18c0
18c0
18c0
d8c0
f8c0
78c0
38c0
18c0
0800
ENDCHAR
STARTCHAR LArrowHookUp
ENCODING 78
SWIDTH 870 0
DWIDTH 17 0
BBX 15 9 1 1
BITMAP
001c
181e
3806
7006
fffe
fffc
7000
3800
1800
ENDCHAR
STARTCHAR RArrowHookUp
ENCODING 79
SWIDTH 870 0
DWIDTH 17 0
BBX 15 9 1 1
BITMAP
7000
f030
c038
c01c
fffe
7ffe
001c
0038
0030
ENDCHAR
STARTCHAR LArrow
ENCODING 80
SWIDTH 870 0
DWIDTH 17 0
BBX 15 8 1 1
BITMAP
1800
3800
7000
fffe
fffe
7000
3800
1800
ENDCHAR
STARTCHAR Extens
ENCODING 81
SWIDTH 364 0
DWIDTH 7 0
BBX 8 2 0 4
BITMAP
ff
ff
ENDCHAR
STARTCHAR LeftTackBase
ENCODING 82
SWIDTH 246 0
DWIDTH 5 0
BBX 4 8 0 1
BITMAP
30
30
30
f0
f0
30
30
30
ENDCHAR
STARTCHAR RightTackBase
ENCODING 83
SWIDTH 246 0
DWIDTH 5 0
BBX 4 8 1 1
BITMAP
c0
c0
c0
f0
f0
c0
c0
c0
ENDCHAR
STARTCHAR RArrow
ENCODING 84
SWIDTH 870 0
DWIDTH 17 0
BBX 15 8 1 1
BITMAP
0030
0038
001c
fffe
fffe
001c
0038
0030
ENDCHAR
STARTCHAR RUpVector2
ENCODING 85
SWIDTH 590 0
DWIDTH 12 0
BBX 5 15 5 0
BITMAP
80
c0
e0
f0
f8
d8
c0
c0
c0
c0
c0
c0
c0
c0
c0
ENDCHAR
STARTCHAR RArrowLArrow
ENCODING 86
SWIDTH 861 0
DWIDTH 17 0
BBX 15 13 1 -2
BITMAP
0010
0018
000c
fffe
fffe
100c
3018
6010
fffe
fffe
6000
3000
1000
ENDCHAR
STARTCHAR LArrowRArrow
ENCODING 87
SWIDTH 861 0
DWIDTH 17 0
BBX 15 13 1 -2
BITMAP
1000
3000
6000
fffe
fffe
6010
3018
100c
fffe
fffe
000c
0018
0010
ENDCHAR
STARTCHAR RArrowLArrowHeadL
ENCODING 88
SWIDTH 297 0
DWIDTH 6 0
BBX 5 10 1 -2
BITMAP
f8
f8
10
30
60
f8
f8
60
30
10
ENDCHAR
STARTCHAR RArrowLArrowHeadR
ENCODING 89
SWIDTH 297 0
DWIDTH 6 0
BBX 5 10 0 1
BITMAP
40
60
30
f8
f8
30
60
40
f8
f8
ENDCHAR
STARTCHAR LArrowRArrowHeadL
ENCODING 90
SWIDTH 297 0
DWIDTH 6 0
BBX 5 10 1 1
BITMAP
10
30
60
f8
f8
60
30
10
f8
f8
ENDCHAR
STARTCHAR LArrowRArrowHeadR
ENCODING 91
SWIDTH 297 0
DWIDTH 6 0
BBX 5 10 0 -2
BITMAP
f8
f8
40
60
30
f8
f8
30
60
40
ENDCHAR
STARTCHAR UpArrowDownArrow
ENCODING 92
SWIDTH 720 0
DWIDTH 14 0
BBX 13 14 1 0
BITMAP
18c0
3cc0
7ec0
dbc0
18c0
18c0
18c0
18c0
18c0
18c0
1ed8
1bf0
19e0
18c0
ENDCHAR
STARTCHAR DownArrowUpArrow
ENCODING 93
SWIDTH 720 0
DWIDTH 14 0
BBX 13 14 1 0
BITMAP
18c0
19e0
1bf0
1ed8
18c0
18c0
18c0
18c0
18c0
18c0
dbc0
7ec0
3cc0
18c0
ENDCHAR
STARTCHAR VertExt1
ENCODING 94
SWIDTH 87 0
DWIDTH 2 0
BBX 2 4 0 0
BITMAP
c0
c0
c0
c0
ENDCHAR
STARTCHAR HorizExt1
ENCODING 95
SWIDTH 200 0
DWIDTH 4 0
BBX 5 2 0 0
BITMAP
f8
f8
ENDCHAR
STARTCHAR UpArrow
ENCODING 96
SWIDTH 590 0
DWIDTH 12 0
BBX 8 15 2 0
BITMAP
18
3c
7e
ff
db
18
18
18
18
18
18
18
18
18
18
ENDCHAR
STARTCHAR UpTackBase
ENCODING 97
SWIDTH 590 0
DWIDTH 12 0
BBX 10 4 1 0
BITMAP
0c00
0c00
ffc0
ffc0
ENDCHAR
STARTCHAR DownTackBase
ENCODING 98
SWIDTH 590 0
DWIDTH 12 0
BBX 10 4 1 0
BITMAP
ffc0
ffc0
0c00
0c00
ENDCHAR
STARTCHAR DownArrow
ENCODING 99
SWIDTH 590 0
DWIDTH 12 0
BBX 8 15 2 0
BITMAP
18
18
18
18
18
18
18
18
18
18
db
ff
7e
3c
18
ENDCHAR
STARTCHAR RDownVector2
ENCODING 100
SWIDTH 590 0
DWIDTH 12 0
BBX 5 15 5 0
BITMAP
c0
c0
c0
c0
c0
c0
c0
c0
c0
d8
f8
f0
e0
c0
80
ENDCHAR
STARTCHAR UpEquilbrmHeadBttm
ENCODING 101
SWIDTH 713 0
DWIDTH 14 0
BBX 10 6 3 0
BITMAP
c6c0
c7c0
c780
c700
c600
c400
ENDCHAR
STARTCHAR DblUpExtens2
ENCODING 102
SWIDTH 713 0
DWIDTH 14 0
BBX 7 7 3 0
BITMAP
c6
c6
c6
c6
c6
c6
c6
ENDCHAR
STARTCHAR RvrsUpEquilHdTop
ENCODING 103
SWIDTH 713 0
DWIDTH 14 0
BBX 10 6 3 0
BITMAP
c400
c600
c700
c780
c7c0
c6c0
ENDCHAR
STARTCHAR UpEquilbrmHeadTop
ENCODING 104
SWIDTH 726 0
DWIDTH 15 0
BBX 10 6 1 0
BITMAP
08c0
18c0
38c0
78c0
f8c0
d8c0
ENDCHAR
STARTCHAR DblUpExtens1
ENCODING 105
SWIDTH 726 0
DWIDTH 15 0
BBX 7 7 4 0
BITMAP
c6
c6
c6
c6
c6
c6
c6
ENDCHAR
STARTCHAR RvrsUpEquilibrmHdBttm
ENCODING 106
SWIDTH 727 0
DWIDTH 15 0
BBX 10 6 1 0
BITMAP
d8c0
f8c0
78c0
38c0
18c0
08c0
ENDCHAR
STARTCHAR UpArrwDwnArrwBttm
ENCODING 107
SWIDTH 726 0
DWIDTH 15 0
BBX 10 4 4 0
BITMAP
f6c0
df80
cf00
c600
ENDCHAR
STARTCHAR DwnArrwUpArrwTop
ENCODING 108
SWIDTH 726 0
DWIDTH 15 0
BBX 10 4 4 0
BITMAP
c600
cf00
df80
f6c0
ENDCHAR
STARTCHAR UpArrwDwnArrwTop
ENCODING 109
SWIDTH 726 0
DWIDTH 15 0
BBX 10 4 1 0
BITMAP
18c0
3cc0
7ec0
dbc0
ENDCHAR
STARTCHAR DwnArrwUpArrwBttm
ENCODING 110
SWIDTH 726 0
DWIDTH 15 0
BBX 10 4 1 0
BITMAP
dbc0
7ec0
3cc0
18c0
ENDCHAR
STARTCHAR DblExtens
ENCODING 111
SWIDTH 364 0
DWIDTH 7 0
BBX 8 7 0 1
BITMAP
ff
ff
00
00
00
ff
ff
ENDCHAR
STARTCHAR OverBracket1
ENCODING 112
SWIDTH 800 0
DWIDTH 16 0
BBX 16 3 0 0
BITMAP
ffff
ffff
8001
ENDCHAR
STARTCHAR OverBracket2
ENCODING 113
SWIDTH 1050 0
DWIDTH 21 0
BBX 21 3 0 0
BITMAP
fffff8
fffff8
800008
ENDCHAR
STARTCHAR OverBracket3
ENCODING 114
SWIDTH 1400 0
DWIDTH 28 0
BBX 28 3 0 0
BITMAP
fffffff0
fffffff0
80000010
ENDCHAR
STARTCHAR OverBracket4
ENCODING 115
SWIDTH 1750 0
DWIDTH 35 0
BBX 35 3 0 0
BITMAP
ffffffffe0
ffffffffe0
8000000020
ENDCHAR
STARTCHAR OverBracketExt1
ENCODING 116
SWIDTH 200 0
DWIDTH 4 0
BBX 4 3 0 0
BITMAP
f0
f0
80
ENDCHAR
STARTCHAR OverBracketExt2
ENCODING 117
SWIDTH 200 0
DWIDTH 4 0
BBX 4 2 0 1
BITMAP
f0
f0
ENDCHAR
STARTCHAR OverBracketExt3
ENCODING 118
SWIDTH 200 0
DWIDTH 4 0
BBX 4 3 0 0
BITMAP
f0
f0
10
ENDCHAR
STARTCHAR ShortUpArrow
ENCODING 119
SWIDTH 591 0
DWIDTH 12 0
BBX 8 11 2 0
BITMAP
18
3c
7e
ff
db
18
18
18
18
18
18
ENDCHAR
STARTCHAR ShortDownArrow
ENCODING 120
SWIDTH 591 0
DWIDTH 12 0
BBX 8 11 2 0
BITMAP
18
18
18
18
18
18
db
ff
7e
3c
18
ENDCHAR
STARTCHAR ShortLArrow
ENCODING 121
SWIDTH 652 0
DWIDTH 13 0
BBX 11 8 1 1
BITMAP
1800
3800
7000
ffe0
ffe0
7000
3800
1800
ENDCHAR
STARTCHAR ShortRArrow
ENCODING 122
SWIDTH 652 0
DWIDTH 13 0
BBX 11 8 1 1
BITMAP
0300
0380
01c0
ffe0
ffe0
01c0
0380
0300
ENDCHAR
STARTCHAR LArrowBar
ENCODING 123
SWIDTH 962 0
DWIDTH 19 0
BBX 17 8 1 1
BITMAP
c60000
ce0000
dc0000
ffff80
ffff80
dc0000
ce0000
c60000
ENDCHAR
STARTCHAR Dash
ENCODING 124
SWIDTH 390 0
DWIDTH 8 0
BBX 6 2 1 4
BITMAP
fc
fc
ENDCHAR
STARTCHAR LongDash
ENCODING 125
SWIDTH 545 0
DWIDTH 11 0
BBX 9 2 1 4
BITMAP
ff80
ff80
ENDCHAR
STARTCHAR DivisionBarExtens
ENCODING 126
SWIDTH 1010 0
DWIDTH 20 0
BBX 18 2 1 4
BITMAP
ffffc0
ffffc0
ENDCHAR
STARTCHAR DEL
ENCODING 127
SWIDTH 189 0
DWIDTH 4 0
BBX 0 0 0 0
BITMAP
ENDCHAR
STARTCHAR UnderBracket1
ENCODING 128
SWIDTH 800 0
DWIDTH 16 0
BBX 16 3 0 0
BITMAP
8001
ffff
ffff
ENDCHAR
STARTCHAR UnderBracket2
ENCODING 129
SWIDTH 1050 0
DWIDTH 21 0
BBX 21 3 0 0
BITMAP
800008
fffff8
fffff8
ENDCHAR
STARTCHAR UnderBracket3
ENCODING 130
SWIDTH 1400 0
DWIDTH 28 0
BBX 28 3 0 0
BITMAP
80000010
fffffff0
fffffff0
ENDCHAR
STARTCHAR UnderBracket4
ENCODING 131
SWIDTH 1750 0
DWIDTH 35 0
BBX 35 3 0 0
BITMAP
8000000020
ffffffffe0
ffffffffe0
ENDCHAR
STARTCHAR UnderBracketExt1
ENCODING 132
SWIDTH 200 0
DWIDTH 4 0
BBX 4 3 0 0
BITMAP
80
f0
f0
ENDCHAR
STARTCHAR UnderBracketExt2
ENCODING 133
SWIDTH 200 0
DWIDTH 4 0
BBX 4 2 0 0
BITMAP
f0
f0
ENDCHAR
STARTCHAR UnderBracketExt3
ENCODING 134
SWIDTH 200 0
DWIDTH 4 0
BBX 4 3 0 0
BITMAP
10
f0
f0
ENDCHAR
STARTCHAR LowerLeftArrow
ENCODING 135
SWIDTH 755 0
DWIDTH 15 0
BBX 13 13 1 0
BITMAP
0010
0038
0070
00e0
01c0
0380
c700
ce00
dc00
f800
f000
fe00
fe00
ENDCHAR
STARTCHAR UpperLeftArrow
ENCODING 136
SWIDTH 755 0
DWIDTH 15 0
BBX 13 13 1 0
BITMAP
fe00
fe00
f000
f800
dc00
ce00
c700
0380
01c0
00e0
0070
0038
0010
ENDCHAR
STARTCHAR UpperRightArrow
ENCODING 137
SWIDTH 755 0
DWIDTH 15 0
BBX 13 13 1 0
BITMAP
03f8
03f8
0078
00f8
01d8
0398
0718
0e00
1c00
3800
7000
e000
4000
ENDCHAR
STARTCHAR LowerRightArrow
ENCODING 138
SWIDTH 755 0
DWIDTH 15 0
BBX 13 13 1 0
BITMAP
4000
e000
7000
3800
1c00
0e00
0718
0398
01d8
00f8
0078
03f8
03f8
ENDCHAR
STARTCHAR LongLowerLeftArrow
ENCODING 139
SWIDTH 1208 0
DWIDTH 24 0
BBX 22 22 1 -4
BITMAP
000008
00001c
000038
000070
0000e0
0001c0
000380
000700
000e00
001c00
003800
007000
00e000
01c000
038000
c70000
ce0000
dc0000
f80000
f00000
fe0000
fe0000
ENDCHAR
STARTCHAR LongUpperLeftArrow
ENCODING 140
SWIDTH 1208 0
DWIDTH 24 0
BBX 22 22 1 -4
BITMAP
fe0000
fe0000
f00000
f80000
dc0000
ce0000
c70000
038000
01c000
00e000
007000
003800
001c00
000e00
000700
000380
0001c0
0000e0
000070
000038
00001c
000008
ENDCHAR
STARTCHAR LongUpperRightArrow
ENCODING 141
SWIDTH 1208 0
DWIDTH 24 0
BBX 22 22 1 -4
BITMAP
0001fc
0001fc
00003c
00007c
0000ec
0001cc
00038c
000700
000e00
001c00
003800
007000
00e000
01c000
038000
070000
0e0000
1c0000
380000
700000
e00000
400000
ENDCHAR
STARTCHAR LongLowerRightArrow
ENCODING 142
SWIDTH 1208 0
DWIDTH 24 0
BBX 22 22 1 -4
BITMAP
400000
e00000
700000
380000
1c0000
0e0000
070000
038000
01c000
00e000
007000
003800
001c00
000e00
000700
00038c
0001cc
0000ec
00007c
00003c
0001fc
0001fc
ENDCHAR
STARTCHAR Arrowhead
ENCODING 143
SWIDTH 450 0
DWIDTH 9 0
BBX 7 7 1 0
BITMAP
c0
c0
c0
c0
e0
fe
fe
ENDCHAR
STARTCHAR OverParen1
ENCODING 144
SWIDTH 700 0
DWIDTH 14 0
BBX 14 3 0 0
BITMAP
1fc0
7ff8
c00c
ENDCHAR
STARTCHAR OverParen2
ENCODING 145
SWIDTH 1050 0
DWIDTH 21 0
BBX 21 3 0 0
BITMAP
1fffc0
7ffff0
c00018
ENDCHAR
STARTCHAR OverParen3
ENCODING 146
SWIDTH 1400 0
DWIDTH 28 0
BBX 28 3 0 0
BITMAP
1fffff80
7fffffe0
c0000030
ENDCHAR
STARTCHAR OverParen4
ENCODING 147
SWIDTH 1750 0
DWIDTH 35 0
BBX 35 3 0 0
BITMAP
1fffffff00
7fffffffc0
c000000060
ENDCHAR
STARTCHAR OverParenExt1
ENCODING 148
SWIDTH 330 0
DWIDTH 7 0
BBX 7 3 0 0
BITMAP
1e
7e
80
ENDCHAR
STARTCHAR OverParenExt2
ENCODING 149
SWIDTH 200 0
DWIDTH 4 0
BBX 4 2 0 1
BITMAP
f0
f0
ENDCHAR
STARTCHAR OverParenExt3
ENCODING 150
SWIDTH 330 0
DWIDTH 7 0
BBX 7 3 0 0
BITMAP
f0
fc
02
ENDCHAR
STARTCHAR OverBrace1
ENCODING 151
SWIDTH 700 0
DWIDTH 14 0
BBX 14 4 0 0
BITMAP
0100
7ff8
fefc
8004
ENDCHAR
STARTCHAR OverBrace2
ENCODING 152
SWIDTH 1150 0
DWIDTH 23 0
BBX 23 4 0 0
BITMAP
001000
7ffffc
ffeffe
800002
ENDCHAR
STARTCHAR OverBrace3
ENCODING 153
SWIDTH 1500 0
DWIDTH 30 0
BBX 30 4 0 0
BITMAP
00010000
7ffffff8
fffefffc
80000004
ENDCHAR
STARTCHAR OverBrace4
ENCODING 154
SWIDTH 1850 0
DWIDTH 37 0
BBX 37 4 0 0
BITMAP
0000200000
7ffffffff0
ffffdffff8
8000000008
ENDCHAR
STARTCHAR OverBraceExt1
ENCODING 155
SWIDTH 200 0
DWIDTH 4 0
BBX 4 3 0 0
BITMAP
30
f0
80
ENDCHAR
STARTCHAR OverBraceExt2
ENCODING 156
SWIDTH 200 0
DWIDTH 4 0
BBX 4 2 0 1
BITMAP
f0
f0
ENDCHAR
STARTCHAR OverBraceExt3
ENCODING 157
SWIDTH 347 0
DWIDTH 7 0
BBX 7 3 0 1
BITMAP
10
fe
ee
ENDCHAR
STARTCHAR OverBraceExt4
ENCODING 158
SWIDTH 200 0
DWIDTH 4 0
BBX 4 3 0 0
BITMAP
c0
f0
10
ENDCHAR
STARTCHAR AngleArrowExt45
ENCODING 159
SWIDTH 308 0
DWIDTH 6 0
BBX 6 6 0 0
BITMAP
08
1c
38
70
e0
40
ENDCHAR
STARTCHAR UnderParen1
ENCODING 160
SWIDTH 700 0
DWIDTH 14 0
BBX 14 3 0 0
BITMAP
c00c
7ff0
0fc0
ENDCHAR
STARTCHAR UnderParen2
ENCODING 161
SWIDTH 1050 0
DWIDTH 21 0
BBX 21 3 0 0
BITMAP
c00018
7ffff0
0fff80
ENDCHAR
STARTCHAR UnderParen3
ENCODING 162
SWIDTH 1400 0
DWIDTH 28 0
BBX 28 3 0 0
BITMAP
c0000030
7fffffe0
0fffff00
ENDCHAR
STARTCHAR UnderParen4
ENCODING 163
SWIDTH 1750 0
DWIDTH 35 0
BBX 35 3 0 0
BITMAP
c000000060
7fffffffc0
0ffffffe00
ENDCHAR
STARTCHAR UnderParenExt1
ENCODING 164
SWIDTH 330 0
DWIDTH 7 0
BBX 7 3 0 0
BITMAP
80
7e
1e
ENDCHAR
STARTCHAR UnderParenExt2
ENCODING 165
SWIDTH 200 0
DWIDTH 4 0
BBX 4 2 0 0
BITMAP
f0
f0
ENDCHAR
STARTCHAR UnderParenExt3
ENCODING 166
SWIDTH 330 0
DWIDTH 7 0
BBX 7 3 0 0
BITMAP
02
fc
f0
ENDCHAR
STARTCHAR UnderBrace1
ENCODING 167
SWIDTH 700 0
DWIDTH 14 0
BBX 14 4 0 -1
BITMAP
8004
fefc
7ff8
0100
ENDCHAR
STARTCHAR UnderBrace2
ENCODING 168
SWIDTH 1150 0
DWIDTH 23 0
BBX 23 4 0 -1
BITMAP
800002
ffeffe
7ffffc
001000
ENDCHAR
STARTCHAR UnderBrace3
ENCODING 169
SWIDTH 1500 0
DWIDTH 30 0
BBX 30 4 0 -1
BITMAP
80000004
fffefffc
7ffffff8
00010000
ENDCHAR
STARTCHAR UnderBrace4
ENCODING 170
SWIDTH 1850 0
DWIDTH 37 0
BBX 37 4 0 -1
BITMAP
8000000008
ffffdffff8
7ffffffff0
0000200000
ENDCHAR
STARTCHAR UnderBraceExt1
ENCODING 171
SWIDTH 200 0
DWIDTH 4 0
BBX 4 3 0 0
BITMAP
80
f0
30
ENDCHAR
STARTCHAR UnderBraceExt2
ENCODING 172
SWIDTH 200 0
DWIDTH 4 0
BBX 4 2 0 0
BITMAP
f0
f0
ENDCHAR
STARTCHAR UnderBraceExt3
ENCODING 173
SWIDTH 347 0
DWIDTH 7 0
BBX 7 3 0 -1
BITMAP
ee
fe
10
ENDCHAR
STARTCHAR UnderBraceExt4
ENCODING 174
SWIDTH 200 0
DWIDTH 4 0
BBX 4 3 0 0
BITMAP
10
f0
c0
ENDCHAR
STARTCHAR AngleArrowExt135
ENCODING 175
SWIDTH 308 0
DWIDTH 6 0
BBX 6 6 0 0
BITMAP
40
e0
70
38
1c
08
ENDCHAR
STARTCHAR OverWedge1
ENCODING 176
SWIDTH 700 0
DWIDTH 14 0
BBX 15 4 0 0
BITMAP
0380
0fe0
7c7c
c006
ENDCHAR
STARTCHAR OverWedge2
ENCODING 177
SWIDTH 1050 0
DWIDTH 21 0
BBX 21 4 0 0
BITMAP
007000
07ff00
3f07e0
e00038
ENDCHAR
STARTCHAR OverWedge3
ENCODING 178
SWIDTH 1400 0
DWIDTH 28 0
BBX 29 4 0 0
BITMAP
000f8000
01fffc00
3fe03fe0
f0000078
ENDCHAR
STARTCHAR OverWedge4
ENCODING 179
SWIDTH 1750 0
DWIDTH 35 0
BBX 35 4 0 0
BITMAP
0001f00000
007fffc000
1ff803ff00
f0000001e0
ENDCHAR
STARTCHAR Ellipsis
ENCODING 180
SWIDTH 1000 0
DWIDTH 20 0
BBX 17 3 2 -1
BITMAP
e1c380
e1c380
e1c380
ENDCHAR
STARTCHAR CenterEllipsis
ENCODING 181
SWIDTH 1000 0
DWIDTH 20 0
BBX 17 3 2 4
BITMAP
e1c380
e1c380
e1c380
ENDCHAR
STARTCHAR VertEllipsis
ENCODING 182
SWIDTH 279 0
DWIDTH 6 0
BBX 3 17 1 -1
BITMAP
e0
e0
e0
00
00
00
00
e0
e0
e0
00
00
00
00
e0
e0
e0
ENDCHAR
STARTCHAR DiagEllipsis
ENCODING 183
SWIDTH 713 0
DWIDTH 14 0
BBX 13 13 1 0
BITMAP
0038
0038
0038
0000
0000
0700
0700
0700
0000
0000
e000
e000
e000
ENDCHAR
STARTCHAR BackDiagEllipsis
ENCODING 184
SWIDTH 713 0
DWIDTH 14 0
BBX 13 13 1 0
BITMAP
e000
e000
e000
0000
0000
0700
0700
0700
0000
0000
0038
0038
0038
ENDCHAR
STARTCHAR Ellipsis2
ENCODING 185
SWIDTH 1000 0
DWIDTH 20 0
BBX 17 3 2 -1
BITMAP
e1c380
e1c380
e1c380
ENDCHAR
STARTCHAR CenterEllipsis2
ENCODING 186
SWIDTH 1000 0
DWIDTH 20 0
BBX 17 3 2 4
BITMAP
e1c380
e1c380
e1c380
ENDCHAR
STARTCHAR VertEllipsis2
ENCODING 187
SWIDTH 279 0
DWIDTH 6 0
BBX 3 17 1 -1
BITMAP
e0
e0
e0
00
00
00
00
e0
e0
e0
00
00
00
00
e0
e0
e0
ENDCHAR
STARTCHAR Dot
ENCODING 188
SWIDTH 335 0
DWIDTH 7 0
BBX 3 3 2 -1
BITMAP
e0
e0
e0
ENDCHAR
STARTCHAR CenterDot
ENCODING 189
SWIDTH 335 0
DWIDTH 7 0
BBX 3 3 2 4
BITMAP
e0
e0
e0
ENDCHAR
STARTCHAR BackPrime
ENCODING 190
SWIDTH 373 0
DWIDTH 7 0
BBX 5 9 1 0
BITMAP
c0
e0
e0
70
70
30
10
18
08
ENDCHAR
STARTCHAR DblBackPrime
ENCODING 191
SWIDTH 651 0
DWIDTH 13 0
BBX 11 9 1 0
BITMAP
e300
e380
f380
71c0
39c0
38c0
1840
0c60
0420
ENDCHAR
STARTCHAR UnderVee1
ENCODING 192
SWIDTH 700 0
DWIDTH 14 0
BBX 14 4 0 0
BITMAP
c00c
78fc
1fe0
0700
ENDCHAR
STARTCHAR UnderVee2
ENCODING 193
SWIDTH 1050 0
DWIDTH 21 0
BBX 21 4 0 0
BITMAP
e00038
3f07f8
07ff80
007800
ENDCHAR
STARTCHAR UnderVee3
ENCODING 194
SWIDTH 1400 0
DWIDTH 28 0
BBX 28 4 0 0
BITMAP
f00000f0
3fc07ff0
01fffe00
001f8000
ENDCHAR
STARTCHAR UnderVee4
ENCODING 195
SWIDTH 1750 0
DWIDTH 35 0
BBX 35 4 0 0
BITMAP
f8000001e0
1ff803ffe0
007ffff000
0001f80000
ENDCHAR
STARTCHAR UpPointer
ENCODING 196
SWIDTH 520 0
DWIDTH 10 0
BBX 7 4 2 3
BITMAP
10
38
7c
fe
ENDCHAR
STARTCHAR RightPointer
ENCODING 197
SWIDTH 310 0
DWIDTH 6 0
BBX 4 7 1 2
BITMAP
80
c0
e0
f0
e0
c0
80
ENDCHAR
STARTCHAR DownPointer
ENCODING 198
SWIDTH 520 0
DWIDTH 10 0
BBX 7 4 2 3
BITMAP
fe
7c
38
10
ENDCHAR
STARTCHAR LeftPointer
ENCODING 199
SWIDTH 310 0
DWIDTH 6 0
BBX 4 7 1 2
BITMAP
10
30
70
f0
70
30
10
ENDCHAR
STARTCHAR UpLHookExt
ENCODING 200
SWIDTH 275 0
DWIDTH 6 0
BBX 5 6 0 4
BITMAP
f0
f8
18
18
f8
f0
ENDCHAR
STARTCHAR UpRHookExt
ENCODING 201
SWIDTH 275 0
DWIDTH 6 0
BBX 5 6 1 4
BITMAP
78
f8
c0
c0
f8
78
ENDCHAR
STARTCHAR Nbspace
ENCODING 202
SWIDTH 189 0
DWIDTH 4 0
BBX 0 0 0 0
BITMAP
ENDCHAR
STARTCHAR XBox
ENCODING 203
SWIDTH 600 0
DWIDTH 12 0
BBX 9 9 1 0
BITMAP
ff80
c180
a280
9480
8880
9480
a280
c180
ff80
ENDCHAR
STARTCHAR SmileyFace
ENCODING 204
SWIDTH 577 0
DWIDTH 12 0
BBX 10 13 1 0
BITMAP
7f80
7f80
e1c0
d2c0
d2c0
c0c0
c0c0
c0c0
dec0
ccc0
e1c0
7f80
7f80
ENDCHAR
STARTCHAR StraightFace
ENCODING 205
SWIDTH 577 0
DWIDTH 12 0
BBX 10 13 1 0
BITMAP
7f80
7f80
e1c0
d2c0
d2c0
c0c0
c0c0
c0c0
dec0
dec0
e1c0
7f80
7f80
ENDCHAR
STARTCHAR FrownFace
ENCODING 206
SWIDTH 577 0
DWIDTH 12 0
BBX 10 13 1 0
BITMAP
7f80
7f80
e1c0
d2c0
d2c0
c0c0
c0c0
dcc0
dec0
c0c0
e1c0
7f80
7f80
ENDCHAR
STARTCHAR ShockFace
ENCODING 207
SWIDTH 581 0
DWIDTH 12 0
BBX 11 19 0 0
BITMAP
0100
9120
4920
4940
2940
aaa0
7fe0
3fc0
70e0
6960
6960
6060
6060
6660
6960
6960
76e0
3fc0
3fc0
ENDCHAR
STARTCHAR Strike1
ENCODING 208
SWIDTH 180 0
DWIDTH 4 0
BBX 4 7 0 2
BITMAP
30
30
60
60
60
c0
c0
ENDCHAR
STARTCHAR Strike2
ENCODING 209
SWIDTH 233 0
DWIDTH 5 0
BBX 5 10 0 0
BITMAP
18
38
30
30
30
60
60
60
e0
c0
ENDCHAR
STARTCHAR Strike3
ENCODING 210
SWIDTH 280 0
DWIDTH 6 0
BBX 6 14 0 -2
BITMAP
0c
0c
18
18
18
30
30
30
30
60
60
60
c0
c0
ENDCHAR
STARTCHAR Strike4
ENCODING 211
SWIDTH 311 0
DWIDTH 6 0
BBX 6 17 0 -3
BITMAP
0c
0c
18
18
18
18
30
30
30
30
30
60
60
60
60
c0
c0
ENDCHAR
STARTCHAR Strike5
ENCODING 212
SWIDTH 340 0
DWIDTH 7 0
BBX 7 19 0 -3
BITMAP
06
06
0c
0c
0c
0c
18
18
18
38
30
30
30
60
60
60
60
c0
c0
ENDCHAR
STARTCHAR Strike6
ENCODING 213
SWIDTH 349 0
DWIDTH 7 0
BBX 7 20 0 -4
BITMAP
06
06
0c
0c
0c
0c
18
18
18
18
30
30
30
30
60
60
60
60
c0
c0
ENDCHAR
STARTCHAR KeyBar
ENCODING 214
SWIDTH 88 0
DWIDTH 2 0
BBX 4 3 -1 3
BITMAP
f0
f0
f0
ENDCHAR
STARTCHAR DownLHookExt
ENCODING 215
SWIDTH 275 0
DWIDTH 6 0
BBX 5 6 0 0
BITMAP
f0
f8
18
18
f8
f0
ENDCHAR
STARTCHAR DownRHookExt
ENCODING 216
SWIDTH 275 0
DWIDTH 6 0
BBX 5 6 1 0
BITMAP
78
f8
c0
c0
f8
78
ENDCHAR
STARTCHAR Icos
ENCODING 217
SWIDTH 956 0
DWIDTH 19 0
BBX 18 16 0 -2
BITMAP
008600
1f5a00
192600
0a1a00
0e0a00
0ffdc0
f69440
49a480
30a340
104e80
1ff300
08a200
056600
0d3500
06ff00
030800
ENDCHAR
STARTCHAR KernalIcon
ENCODING 218
SWIDTH 909 0
DWIDTH 18 0
BBX 17 17 1 -2
BITMAP
03e000
0c1800
311600
3b7200
54b100
4c7100
9bf880
a56680
dd9480
b29a80
dd6c80
6bb100
4b9900
2aea00
3bb600
0c1800
03e000
ENDCHAR
STARTCHAR LightBulb
ENCODING 219
SWIDTH 688 0
DWIDTH 14 0
BBX 12 19 1 -3
BITMAP
0400
2440
2040
0f00
b0d0
2040
4020
4020
4020
6040
2040
1080
0900
0900
0900
0000
0f00
0000
0600
ENDCHAR
STARTCHAR WarningSign
ENCODING 220
SWIDTH 675 0
DWIDTH 14 0
BBX 12 13 1 0
BITMAP
0600
0600
0900
0900
1080
1480
2440
2440
4440
4020
4420
8010
fff0
ENDCHAR
STARTCHAR WatchIcon
ENCODING 221
SWIDTH 597 0
DWIDTH 12 0
BBX 10 15 1 -2
BITMAP
3e00
3e00
3e00
3e00
4100
8480
8480
84c0
9cc0
8080
4100
3e00
3e00
3e00
3e00
ENDCHAR
STARTCHAR Cedilla
ENCODING 222
SWIDTH 254 0
DWIDTH 5 0
BBX 5 5 0 -5
BITMAP
20
70
18
18
f0
ENDCHAR
STARTCHAR Ogonek
ENCODING 223
SWIDTH 211 0
DWIDTH 4 0
BBX 4 3 0 -3
BITMAP
c0
d0
e0
ENDCHAR
STARTCHAR AltKey
ENCODING 224
SWIDTH 1174 0
DWIDTH 23 0
BBX 21 16 1 -3
BITMAP
fffff8
800008
800008
800008
8227c8
852108
852108
852108
88a108
8fa108
88a108
907d08
800008
800008
800008
fffff8
ENDCHAR
STARTCHAR CmdKey
ENCODING 225
SWIDTH 1318 0
DWIDTH 26 0
BBX 24 16 1 -3
BITMAP
ffffff
800001
800001
800001
8ec6f1
92c689
90aa89
90aa89
90aa89
90aa89
929289
8e92f1
800001
800001
800001
ffffff
ENDCHAR
STARTCHAR CtrlKey
ENCODING 226
SWIDTH 1379 0
DWIDTH 28 0
BBX 26 16 1 -3
BITMAP
ffffffc0
80000040
80000040
80000040
8efbc840
92224840
90224840
90238840
90224840
90224840
92224840
8e224f40
80000040
80000040
80000040
ffffffc0
ENDCHAR
STARTCHAR DelKey
ENCODING 227
SWIDTH 1143 0
DWIDTH 23 0
BBX 21 16 1 -3
BITMAP
fffff8
800008
800008
800008
8f3d08
88a108
88a108
88bd08
88a108
88a108
88a108
8f3de8
800008
800008
800008
fffff8
ENDCHAR
STARTCHAR EntKey
ENCODING 228
SWIDTH 1146 0
DWIDTH 23 0
BBX 21 16 1 -3
BITMAP
fffff8
800008
800008
800008
9ed7c8
90d108
90d108
9ed108
90b108
90b108
90b108
9eb108
800008
800008
800008
fffff8
ENDCHAR
STARTCHAR EscKey
ENCODING 229
SWIDTH 1146 0
DWIDTH 23 0
BBX 21 16 1 -3
BITMAP
fffff8
800008
800008
800008
9e7308
909488
908408
9e4408
902408
901408
909488
9e6308
800008
800008
800008
fffff8
ENDCHAR
STARTCHAR OptKey
ENCODING 230
SWIDTH 1187 0
DWIDTH 24 0
BBX 22 16 1 -3
BITMAP
fffffc
800004
800004
800004
8e73e4
914884
914884
917084
914084
914084
914084
8e4084
800004
800004
800004
fffffc
ENDCHAR
STARTCHAR RetKey
ENCODING 231
SWIDTH 1174 0
DWIDTH 23 0
BBX 21 16 1 -3
BITMAP
fffff8
800008
800008
800008
9ef7c8
928108
928108
9cf108
928108
928108
928108
92f108
800008
800008
800008
fffff8
ENDCHAR
STARTCHAR ShftKey
ENCODING 232
SWIDTH 1448 0
DWIDTH 29 0
BBX 27 16 1 -3
BITMAP
ffffffe0
80000020
80000020
80000020
8c8bfe20
928a0820
908a0820
88fb8820
848a0820
828a0820
928a0820
8c8a0820
80000020
80000020
80000020
ffffffe0
ENDCHAR
STARTCHAR SpcKey
ENCODING 233
SWIDTH 1187 0
DWIDTH 24 0
BBX 22 16 1 -3
BITMAP
fffffc
800004
800004
800004
867184
894a44
884a04
847204
824204
814204
894244
864184
800004
800004
800004
fffffc
ENDCHAR
STARTCHAR TabKey
ENCODING 234
SWIDTH 1177 0
DWIDTH 24 0
BBX 22 16 1 -3
BITMAP
fffffc
800004
800004
800004
9f23c4
845224
845224
8453c4
848a24
84fa24
848a24
8507c4
800004
800004
800004
fffffc
ENDCHAR
STARTCHAR LKeyBracket
ENCODING 235
SWIDTH 245 0
DWIDTH 5 0
BBX 6 22 -2 -6
BITMAP
1c
10
10
10
10
10
10
10
10
f0
f0
f0
10
10
10
10
10
10
10
10
10
1c
ENDCHAR
STARTCHAR RKeyBracket
ENCODING 236
SWIDTH 245 0
DWIDTH 5 0
BBX 3 22 1 -6
BITMAP
e0
20
20
20
20
20
20
20
20
20
20
20
20
20
20
20
20
20
20
20
20
e0
ENDCHAR
STARTCHAR CloverLeaf
ENCODING 237
SWIDTH 750 0
DWIDTH 15 0
BBX 13 13 1 0
BITMAP
7070
8888
8888
8888
7ff0
0880
0880
0880
7ff0
8888
8888
8888
7070
ENDCHAR
STARTCHAR DottedSquare
ENCODING 238
SWIDTH 764 0
DWIDTH 15 0
BBX 13 13 1 0
BITMAP
f278
8008
8008
8008
0000
0000
8008
0000
0000
8008
8008
8008
f278
ENDCHAR
STARTCHAR RoundSpaceIndicator
ENCODING 239
SWIDTH 250 0
DWIDTH 5 0
BBX 3 2 1 -3
BITMAP
a0
40
ENDCHAR
STARTCHAR CommandKey
ENCODING 240
SWIDTH 2643 0
DWIDTH 53 0
BBX 51 16 1 -3
BITMAP
ffffffffffffe0
80000000000020
80000000000020
80000000000020
8c731b18465e20
928b1b18a65120
908aaaa8a55120
908aaaa8a55120
908aaaa9155120
908aaaa9f55120
928a4a4914d120
8c724a4a0cde20
80000000000020
80000000000020
80000000000020
ffffffffffffe0
ENDCHAR
STARTCHAR ControlKey
ENCODING 241
SWIDTH 2327 0
DWIDTH 47 0
BBX 45 16 1 -3
BITMAP
fffffffffff8
800000000008
800000000008
800000000008
8c732fbc7208
928b22248a08
908aa2248a08
908aa2388a08
908aa2248a08
908aa2248a08
928a62248a08
8c72622473c8
800000000008
800000000008
800000000008
fffffffffff8
ENDCHAR
STARTCHAR DeleteKey
ENCODING 242
SWIDTH 1890 0
DWIDTH 38 0
BBX 36 16 1 -3
BITMAP
fffffffff0
8000000010
8000000010
8000000010
9e7a1ff790
9142104410
9142104410
917a1e4790
9142104410
9142104410
9142104410
9e7bde4790
8000000010
8000000010
8000000010
fffffffff0
ENDCHAR
STARTCHAR EnterKey
ENCODING 243
SWIDTH 1668 0
DWIDTH 33 0
BBX 31 16 1 -3
BITMAP
fffffffe
80000002
80000002
80000002
9ed7def2
90d11092
90d11092
9ed11ee2
90b11092
90b11092
90b11092
9eb11e92
80000002
80000002
80000002
fffffffe
ENDCHAR
STARTCHAR EscapeKey
ENCODING 244
SWIDTH 2000 0
DWIDTH 40 0
BBX 38 16 1 -3
BITMAP
fffffffffc
8000000004
8000000004
8000000004
9e730439e4
90948a2504
90840a2504
9e440a39e4
9024112104
90141f2104
9094912104
9e6320a1e4
8000000004
8000000004
8000000004
fffffffffc
ENDCHAR
STARTCHAR OptionKey
ENCODING 245
SWIDTH 1869 0
DWIDTH 37 0
BBX 35 16 1 -3
BITMAP
ffffffffe0
8000000020
8000000020
8000000020
8e73e9cd20
91488a2d20
91488a2d20
91708a2d20
91408a2b20
91408a2b20
91408a2b20
8e4089cb20
8000000020
8000000020
8000000020
ffffffffe0
ENDCHAR
STARTCHAR ReturnKey
ENCODING 246
SWIDTH 2015 0
DWIDTH 40 0
BBX 38 16 1 -3
BITMAP
fffffffffc
8000000004
8000000004
8000000004
9ef7d179a4
92811149a4
92811149a4
9cf11171a4
9281114964
9281114964
9281114964
92f10e4964
8000000004
8000000004
8000000004
fffffffffc
ENDCHAR
STARTCHAR ShiftKey
ENCODING 247
SWIDTH 1563 0
DWIDTH 31 0
BBX 29 16 1 -3
BITMAP
fffffff8
80000008
80000008
80000008
8c8af7c8
928a8108
908a8108
88fae108
848a8108
828a8108
928a8108
8c8a8108
80000008
80000008
80000008
fffffff8
ENDCHAR
STARTCHAR SpaceKey
ENCODING 248
SWIDTH 1699 0
DWIDTH 34 0
BBX 32 16 1 -3
BITMAP
ffffffff
80000001
80000001
80000001
8ce10cf1
92929281
90929081
88e290f1
84845081
8287d081
92845281
8c882cf1
80000001
80000001
80000001
ffffffff
ENDCHAR
STARTCHAR Mod1Key
ENCODING 249
SWIDTH 1543 0
DWIDTH 31 0
BBX 29 16 1 -3
BITMAP
fffffff8
80000008
80000008
80000008
98ce7888
98d14588
95514488
95514488
95514488
95514488
92514488
924e7888
80000008
80000008
80000008
fffffff8
ENDCHAR
STARTCHAR Mod2Key
ENCODING 250
SWIDTH 1655 0
DWIDTH 33 0
BBX 31 16 1 -3
BITMAP
fffffffe
80000002
80000002
80000002
98ce78e2
98d14522
95514422
95514442
95514442
95514482
92514502
924e79e2
80000002
80000002
80000002
fffffffe
ENDCHAR
STARTCHAR RKeyBracket2
ENCODING 251
SWIDTH 245 0
DWIDTH 5 0
BBX 3 22 1 -6
BITMAP
e0
80
80
80
80
80
80
80
80
80
80
80
80
80
80
80
80
80
80
80
80
e0
ENDCHAR
STARTCHAR LUpHookExt
ENCODING 252
SWIDTH 591 0
DWIDTH 12 0
BBX 6 5 1 0
BITMAP
cc
cc
cc
fc
78
ENDCHAR
STARTCHAR RUpHookExt
ENCODING 253
SWIDTH 250 0
DWIDTH 12 0
BBX 6 5 5 0
BITMAP
cc
cc
cc
fc
78
ENDCHAR
STARTCHAR LDownHookExt
ENCODING 254
SWIDTH 250 0
DWIDTH 12 0
BBX 6 5 1 0
BITMAP
78
fc
cc
cc
cc
ENDCHAR
STARTCHAR RDownHookExt
ENCODING 255
SWIDTH 0 0
DWIDTH 12 0
BBX 6 5 5 0
BITMAP
78
fc
cc
cc
cc
ENDCHAR
ENDFONT
